# xmcd
# 
# Track frame offsets:
#     150
#     16097
#     34080
#     50672
#     67733
#     83791
#     99833
#     127608
#     144305
#     159504
#     180339
# 
# Disc length: 2716
# 
# Revision: 2
# Processed by: cddbd v1.5.2PL0 Copyright (c) Steve Scherf et al.
# Submitted via: fre:ac v1.1beta1pre3
# 
DISCID=740a9a0b
DTITLE=Brantley Gilbert - Just As I Am
DYEAR=2014
DGENRE=Country
TTITLE0=If You Want A Bad Boy
TTITLE1=17 Again
TTITLE2=Bottoms Up
TTITLE3=That Was Us
TTITLE4=I'm Gone
TTITLE5=My Baby's Guns N' Roses
TTITLE6=Lights Of My Hometown
TTITLE7=One Hell Of An Amen
TTITLE8=Small Town Throwdown Featuring Justin Moore and Thomas Rhett
TTITLE9=Let It Ride
TTITLE10=My Faith In You
EXTD=
EXTT0=
EXTT1=
EXTT2=
EXTT3=
EXTT4=
EXTT5=
EXTT6=
EXTT7=
EXTT8=
EXTT9=
EXTT10=
PLAYORDER=
